<?xml version="1.0" encoding="UTF-8" standalone="no"?>
<svg
   xmlns:dc="http://purl.org/dc/elements/1.1/"
   xmlns:cc="http://creativecommons.org/ns#"
   xmlns:rdf="http://www.w3.org/1999/02/22-rdf-syntax-ns#"
   xmlns:svg="http://www.w3.org/2000/svg"
   xmlns="http://www.w3.org/2000/svg"
   id="svg133"
   xml:space="preserve"
   viewBox="0 0 151.7561 140.5112"
   height="140.5112"
   width="151.7561"
   y="0px"
   x="0px"
   version="1.0"><metadata
   id="metadata139"><rdf:RDF><cc:Work
       rdf:about=""><dc:format>image/svg+xml</dc:format><dc:type
         rdf:resource="http://purl.org/dc/dcmitype/StillImage" /><dc:title></dc:title></cc:Work></rdf:RDF></metadata><defs
   id="defs137" />
<g
   transform="translate(20.878053)"
   id="Artboard">
</g>
<g
   transform="translate(20.878053)"
   id="Multicolor">
	<circle
   id="circle94"
   r="55"
   cy="55"
   cx="55"
   style="fill:#fabc3d" />
	<g
   id="g130">
		<g
   id="g98">
			<path
   id="path96"
   d="m 25.44,49.62 c 1.65,1.43 4.14,1.26 5.59,-0.37 C 35.27,44.51 39,46 39,46 c 0,0 -2,4 -1,12 -6.675,3.337 -8.475,12.934 -8.889,16.024 1.359,1.4 3.388,2.641 5.923,3.673 C 35.691,64.875 46,63 46,63 c 3,2 13,2 17,0 3,7 8.31,5.16 12,7 2.978,1.489 3.184,4.639 3.095,6.152 1.499,-0.892 2.699,-1.879 3.504,-2.952 0.358,-0.477 0.833,-0.812 1.353,-1.005 C 82.649,69.172 80.746,64.831 78,63 82.64,52.17 77.98,47.73 71,46.23 65.99,45.16 59.8,45.61 54.99,46.31 53.5,46.53 52.14,46.77 51,47 51,36.24 45.263,31.01 37.51,31.01 c -3.51,0 -6.414,2.198 -8.62,4.74 -2.51,2.88 -4.36,6.45 -4.87,8.83 -0.35,1.69 -0.34,3.42 0.92,4.59 0.15,0.15 0.32,0.3 0.5,0.45 z"
   style="fill:#ffffff" />
		</g>
		<g
   id="g102">
			<path
   id="path100"
   d="M 54.99,46.31 C 53.5,46.53 52.14,46.77 51,47 51,36.24 45.263,31.01 37.51,31.01 34,31.01 31.099,33.205 28.89,35.75 28.8,33.06 29.66,27 39,27 50.61,27 54.73,39.18 54.99,46.31 Z"
   style="fill:#84462d" />
		</g>
		<g
   id="g106">
			<path
   id="path104"
   d="m 73.417,46.912 c 4.824,1.728 7.791,5.421 5.814,12.602 C 81.861,63.556 84.813,67 87,67 87,47.313 82.153,45.07 73.417,46.912 Z"
   style="fill:#84462d" />
		</g>
		<g
   id="g110">
			<path
   id="path108"
   d="M 71,46.23 V 55 c 0,2.209 -1.791,4 -4,4 H 55 c -2.209,0 -4,-1.791 -4,-4 v -8 c 4.84,-0.97 13.44,-2.17 20,-0.77 z"
   style="fill:#df2c2c" />
		</g>
		<g
   id="g114">
			<circle
   id="circle112"
   r="2"
   cy="38"
   cx="33"
   style="fill:#9c6144" />
		</g>
		<g
   id="g120">
			<g
   id="g118">
				<path
   id="path116"
   d="M 55,87 C 43.519,87 29.24,84.32 23.6,76.8 c -0.994,-1.325 -0.725,-3.206 0.601,-4.2 1.324,-0.994 3.205,-0.726 4.2,0.6 3.498,4.665 14.187,7.8 26.599,7.8 12.412,0 23.101,-3.135 26.6,-7.8 0.995,-1.326 2.877,-1.594 4.2,-0.6 1.325,0.994 1.595,2.875 0.601,4.2 C 80.759,84.32 66.481,87 55,87 Z"
   style="fill:#9c6144" />
			</g>
		</g>
		<g
   id="g124">
			<path
   id="path122"
   d="m 39,27 c -9.34,0 -10.2,6.06 -10.11,8.75 2.209,-2.545 5.11,-4.74 8.62,-4.74 6.796,0 12.041,4.02 13.233,12.258 l 3.205,-3.205 C 52.095,33.695 47.608,27 39,27 Z"
   style="fill:#9c6144" />
		</g>
		<g
   id="g128">
			<path
   id="path126"
   d="m 51,47 v 8 c 0,1.107 0.451,2.109 1.178,2.833 L 64.419,45.592 C 59.425,45.559 54.325,46.333 51,47 Z"
   style="fill:#fa5655" />
		</g>
	</g>
</g>
<g
   aria-label="Trojan-GFW"
   transform="matrix(0.7236143,0,0,0.7236143,51.541011,26.387616)"
   style="font-style:normal;font-weight:normal;font-size:40px;line-height:1.25;font-family:sans-serif;letter-spacing:0px;word-spacing:0px;fill:#ffffff;fill-opacity:1;stroke:none"
   id="flowRoot149"><path
     d="m -49.907187,122.51328 v 3.36 h -8.72 v 24.36 h -3.88 v -24.36 h -8.72 v -3.36 z"
     style="font-style:normal;font-variant:normal;font-weight:normal;font-stretch:normal;font-family:Ubuntu;-inkscape-font-specification:Ubuntu;fill:#ffffff"
     id="path32" /><path
     d="m -39.987279,128.99328 q 0.48,0 1.08,0.08 0.64,0.04 1.24,0.16 0.6,0.08 1.08,0.2 0.52,0.08 0.76,0.16 l -0.64,3.24 q -0.44,-0.16 -1.48,-0.36 -1,-0.24 -2.6,-0.24 -1.04,0 -2.08,0.24 -1,0.2 -1.32,0.28 v 17.48 h -3.72 v -19.92 q 1.32,-0.48 3.28,-0.88 1.96,-0.44 4.4,-0.44 z"
     style="font-style:normal;font-variant:normal;font-weight:normal;font-stretch:normal;font-family:Ubuntu;-inkscape-font-specification:Ubuntu;fill:#ffffff"
     id="path34" /><path
     d="m -13.867292,139.83328 q 0,2.48 -0.72,4.48 -0.72,2 -2.04,3.44 -1.28,1.44 -3.08,2.24 -1.8,0.76 -3.92,0.76 -2.12,0 -3.92,-0.76 -1.8,-0.8 -3.12,-2.24 -1.28,-1.44 -2,-3.44 -0.72,-2 -0.72,-4.48 0,-2.44 0.72,-4.44 0.72,-2.04 2,-3.48 1.32,-1.44 3.12,-2.2 1.8,-0.8 3.92,-0.8 2.12,0 3.92,0.8 1.8,0.76 3.08,2.2 1.32,1.44 2.04,3.48 0.72,2 0.72,4.44 z m -3.88,0 q 0,-3.52 -1.6,-5.56 -1.56,-2.08 -4.28,-2.08 -2.72,0 -4.32,2.08 -1.56,2.04 -1.56,5.56 0,3.52 1.56,5.6 1.6,2.04 4.32,2.04 2.72,0 4.28,-2.04 1.6,-2.08 1.6,-5.6 z"
     style="font-style:normal;font-variant:normal;font-weight:normal;font-stretch:normal;font-family:Ubuntu;-inkscape-font-specification:Ubuntu;fill:#ffffff"
     id="path36" /><path
     d="m -12.027362,157.71328 q -0.48,0 -1.24,-0.12 -0.76,-0.12 -1.28,-0.32 l 0.48,-3.04 q 0.4,0.12 0.92,0.2 0.52,0.08 0.96,0.08 1.92,0 2.7199999,-1.2 0.84,-1.16 0.84,-3.44 v -20.44 h 3.72 v 20.4 q 0,4 -1.84,5.92 -1.8,1.96 -5.2799999,1.96 z m 5.2399999,-32.04 q -1,0 -1.72,-0.64 -0.68,-0.68 -0.68,-1.8 0,-1.12 0.68,-1.76 0.72,-0.68 1.72,-0.68 1,0 1.68,0.68 0.72,0.64 0.72,1.76 0,1.12 -0.72,1.8 -0.68,0.64 -1.68,0.64 z"
     style="font-style:normal;font-variant:normal;font-weight:normal;font-stretch:normal;font-family:Ubuntu;-inkscape-font-specification:Ubuntu;fill:#ffffff"
     id="path38" /><path
     d="m 8.532572,147.55328 q 1.32,0 2.32,-0.04 1.04,-0.08 1.72,-0.24 v -6.2 q -0.4,-0.2 -1.32,-0.32 -0.88,-0.16 -2.16,-0.16 -0.84,0 -1.8,0.12 -0.92,0.12 -1.72,0.52 -0.76,0.36 -1.28,1.04 -0.52,0.64 -0.52,1.72 0,2 1.28,2.8 1.28,0.76 3.48,0.76 z m -0.32,-18.64 q 2.24,0 3.76,0.6 1.56,0.56 2.48,1.64 0.96,1.04 1.36,2.52 0.4,1.44 0.4,3.2 v 13 q -0.48,0.08 -1.36,0.24 -0.84,0.12 -1.92,0.24 -1.08,0.12 -2.36,0.2 -1.24,0.12 -2.48,0.12 -1.76,0 -3.24,-0.36 -1.48,-0.36 -2.56,-1.12 -1.08,-0.8 -1.67999998,-2.08 -0.6,-1.28 -0.6,-3.08 0,-1.72 0.68,-2.96 0.71999998,-1.24 1.91999998,-2 1.2,-0.76 2.8,-1.12 1.6,-0.36 3.36,-0.36 0.56,0 1.16,0.08 0.6,0.04 1.12,0.16 0.56,0.08 0.96,0.16 0.4,0.08 0.56,0.12 v -1.04 q 0,-0.92 -0.2,-1.8 -0.2,-0.92 -0.72,-1.6 -0.52,-0.72 -1.44,-1.12 -0.88,-0.44 -2.32,-0.44 -1.84,0 -3.24,0.28 -1.36,0.24 -2.04,0.52 l -0.44,-3.08 q 0.72,-0.32 2.4,-0.6 1.68,-0.32 3.64,-0.32 z"
     style="font-style:normal;font-variant:normal;font-weight:normal;font-stretch:normal;font-family:Ubuntu;-inkscape-font-specification:Ubuntu;fill:#ffffff"
     id="path40" /><path
     d="m 22.372546,130.03328 q 1.28,-0.32 3.4,-0.68 2.12,-0.36 4.88,-0.36 2.48,0 4.12,0.72 1.64,0.68 2.6,1.96 1,1.24 1.4,3 0.4,1.76 0.4,3.88 v 11.68 h -3.72 v -10.88 q 0,-1.92 -0.28,-3.28 -0.24,-1.36 -0.84,-2.2 -0.6,-0.84 -1.6,-1.2 -1,-0.4 -2.48,-0.4 -0.6,0 -1.24,0.04 -0.64,0.04 -1.24,0.12 -0.56,0.04 -1.04,0.12 -0.44,0.08 -0.64,0.12 v 17.56 h -3.72 z"
     style="font-style:normal;font-variant:normal;font-weight:normal;font-stretch:normal;font-family:Ubuntu;-inkscape-font-specification:Ubuntu;fill:#ffffff"
     id="path42" /><path
     d="m 43.172523,136.51328 h 9.88 v 3.48 h -9.88 z"
     style="font-style:normal;font-variant:normal;font-weight:normal;font-stretch:normal;font-family:Ubuntu;-inkscape-font-specification:Ubuntu;fill:#ffffff"
     id="path44" /><path
     d="m 74.452514,136.59328 h 3.88 v 12.96 q -0.48,0.16 -1.4,0.36 -0.88,0.2 -2.08,0.4 -1.16,0.2 -2.56,0.32 -1.4,0.16 -2.84,0.16 -2.92,0 -5.32,-0.96 -2.4,-0.96 -4.12,-2.8 -1.72,-1.84 -2.68,-4.52 -0.92,-2.68 -0.92,-6.16 0,-3.48 1.04,-6.16 1.08,-2.72 2.88,-4.56 1.8,-1.84 4.2,-2.8 2.44,-0.96 5.2,-0.96 1.88,0 3.32,0.24 1.48,0.24 2.52,0.56 1.04,0.32 1.68,0.64 0.68,0.32 0.92,0.48 l -1.24,3.24 q -1.16,-0.76 -3.08,-1.24 -1.92,-0.52 -3.92,-0.52 -2.12,0 -3.88,0.76 -1.72,0.76 -2.96,2.2 -1.2,1.44 -1.88,3.52 -0.68,2.04 -0.68,4.6 0,2.48 0.56,4.52 0.6,2.04 1.76,3.52 1.2,1.44 2.92,2.24 1.76,0.8 4.12,0.8 1.68,0 2.84,-0.16 1.2,-0.2 1.72,-0.36 z"
     style="font-style:normal;font-variant:normal;font-weight:normal;font-stretch:normal;font-family:Ubuntu;-inkscape-font-specification:Ubuntu;fill:#ffffff"
     id="path46" /><path
     d="m 84.412473,150.23328 v -27.72 h 16.719997 v 3.32 H 88.292473 v 8.36 h 11.4 v 3.28 h -11.4 v 12.76 z"
     style="font-style:normal;font-variant:normal;font-weight:normal;font-stretch:normal;font-family:Ubuntu;-inkscape-font-specification:Ubuntu;fill:#ffffff"
     id="path48" /><path
     d="m 121.05242,131.43328 q -1.68,5.36 -3.4,9.92 -1.72,4.56 -3.44,8.88 h -3.88 q -2.12,-6.12 -3.76,-12.92 -1.6,-6.8 -3,-14.8 h 4.08 q 0.56,3.12 1.16,6.24 0.6,3.12 1.24,6.08 0.64,2.92 1.28,5.6 0.64,2.68 1.32,4.96 1.6,-4.2 3.4,-9.2 1.8,-5.04 3.36,-10.4 h 3.36 q 1.56,5.36 3.4,10.4 1.84,5 3.44,9.2 0.64,-2.24 1.28,-4.92 0.64,-2.68 1.24,-5.6 0.64,-2.96 1.24,-6.08 0.6,-3.16 1.16,-6.28 h 3.96 q -1.44,8 -3.08,14.8 -1.6,6.8 -3.68,12.92 h -3.88 q -1.76,-4.32 -3.44,-8.88 -1.68,-4.56 -3.36,-9.92 z"
     style="font-style:normal;font-variant:normal;font-weight:normal;font-stretch:normal;font-family:Ubuntu;-inkscape-font-specification:Ubuntu;fill:#ffffff"
     id="path50" /></g></svg>